<mxfile host="65bd71144e" scale="3" border="0">
    <diagram id="LzTGRrPrDBO6Tm46XuKC" name="Page-1">
        <mxGraphModel dx="1376" dy="1284" grid="0" gridSize="10" guides="1" tooltips="1" connect="1" arrows="1" fold="1" page="0" pageScale="1" pageWidth="1600" pageHeight="1200" math="0" shadow="0">
            <root>
                <mxCell id="0"/>
                <mxCell id="1" parent="0"/>
                <mxCell id="68" value="Active status" style="text;html=1;align=center;verticalAlign=middle;whiteSpace=wrap;rounded=0;fontSize=18;fontStyle=1" parent="1" vertex="1">
                    <mxGeometry x="558.73" y="327" width="363" height="30" as="geometry"/>
                </mxCell>
                <mxCell id="70" value="Pasive status" style="text;html=1;align=center;verticalAlign=middle;whiteSpace=wrap;rounded=0;fontSize=18;fontStyle=1" parent="1" vertex="1">
                    <mxGeometry x="77.74" y="335" width="363" height="30" as="geometry"/>
                </mxCell>
                <mxCell id="80" value="" style="group;aspect=fixed;" parent="1" vertex="1" connectable="0">
                    <mxGeometry x="69.99499999999999" y="37" width="196.83" height="295" as="geometry"/>
                </mxCell>
                <mxCell id="77" value="" style="rounded=1;whiteSpace=wrap;html=1;fillColor=#1A1A1A;strokeColor=none;arcSize=7;aspect=fixed;" parent="80" vertex="1">
                    <mxGeometry x="29.41500000000002" y="30.5" width="138" height="234" as="geometry"/>
                </mxCell>
                <mxCell id="78" value="" style="ellipse;whiteSpace=wrap;html=1;aspect=fixed;fillColor=#B85450;strokeColor=#b85450;" parent="80" vertex="1">
                    <mxGeometry x="63.41500000000002" y="65.5" width="70" height="70" as="geometry"/>
                </mxCell>
                <mxCell id="79" value="" style="ellipse;whiteSpace=wrap;html=1;aspect=fixed;fillColor=#f5f5f5;fontColor=#333333;strokeColor=#666666;" parent="80" vertex="1">
                    <mxGeometry x="63.41500000000002" y="161.5" width="70" height="70" as="geometry"/>
                </mxCell>
                <mxCell id="114" value="" style="group;aspect=fixed;" vertex="1" connectable="0" parent="1">
                    <mxGeometry x="243.915" y="36" width="196.83" height="295" as="geometry"/>
                </mxCell>
                <mxCell id="116" value="" style="rounded=1;whiteSpace=wrap;html=1;fillColor=#1A1A1A;strokeColor=none;arcSize=7;aspect=fixed;" vertex="1" parent="114">
                    <mxGeometry x="29.41500000000002" y="30.5" width="138" height="234" as="geometry"/>
                </mxCell>
                <mxCell id="117" value="" style="ellipse;whiteSpace=wrap;html=1;aspect=fixed;fillColor=#B85450;strokeColor=#b85450;" vertex="1" parent="114">
                    <mxGeometry x="63.41500000000002" y="65.5" width="70" height="70" as="geometry"/>
                </mxCell>
                <mxCell id="118" value="" style="ellipse;whiteSpace=wrap;html=1;aspect=fixed;fillColor=#fff2cc;strokeColor=#d6b656;" vertex="1" parent="114">
                    <mxGeometry x="63.41500000000002" y="161.5" width="70" height="70" as="geometry"/>
                </mxCell>
                <mxCell id="120" value="" style="group;aspect=fixed;" vertex="1" connectable="0" parent="1">
                    <mxGeometry x="548.005" y="34" width="196.83" height="295" as="geometry"/>
                </mxCell>
                <mxCell id="122" value="" style="rounded=1;whiteSpace=wrap;html=1;fillColor=#1A1A1A;strokeColor=none;arcSize=7;aspect=fixed;" vertex="1" parent="120">
                    <mxGeometry x="29.41500000000002" y="30.5" width="138" height="234" as="geometry"/>
                </mxCell>
                <mxCell id="123" value="" style="ellipse;whiteSpace=wrap;html=1;aspect=fixed;fillColor=#B85450;strokeColor=#b85450;" vertex="1" parent="120">
                    <mxGeometry x="63.41500000000002" y="65.5" width="70" height="70" as="geometry"/>
                </mxCell>
                <mxCell id="124" value="" style="ellipse;whiteSpace=wrap;html=1;aspect=fixed;fillColor=#f5f5f5;fontColor=#333333;strokeColor=#666666;" vertex="1" parent="120">
                    <mxGeometry x="63.41500000000002" y="161.5" width="70" height="70" as="geometry"/>
                </mxCell>
                <mxCell id="125" value="" style="group;aspect=fixed;" vertex="1" connectable="0" parent="1">
                    <mxGeometry x="724.905" y="35" width="196.83" height="295" as="geometry"/>
                </mxCell>
                <mxCell id="127" value="" style="rounded=1;whiteSpace=wrap;html=1;fillColor=#1A1A1A;strokeColor=none;arcSize=7;aspect=fixed;" vertex="1" parent="125">
                    <mxGeometry x="29.41500000000002" y="30.5" width="138" height="234" as="geometry"/>
                </mxCell>
                <mxCell id="128" value="" style="ellipse;whiteSpace=wrap;html=1;aspect=fixed;fillColor=#FF3333;strokeColor=#b85450;" vertex="1" parent="125">
                    <mxGeometry x="63.41500000000002" y="65.5" width="70" height="70" as="geometry"/>
                </mxCell>
                <mxCell id="129" value="" style="ellipse;whiteSpace=wrap;html=1;aspect=fixed;" vertex="1" parent="125">
                    <mxGeometry x="63.41500000000002" y="161.5" width="70" height="70" as="geometry"/>
                </mxCell>
            </root>
        </mxGraphModel>
    </diagram>
</mxfile>